# xmcd
#
# Track frame offsets:
# 150
# 16770
# 32627
# 47825
# 61047
# 76170
# 94785
# 108337
# 123270
# 139915
#
# Disc length: 2130 seconds
#
#
# Revision: 0
# Processed by: cddbd v1.5.1PL2 Copyright (c) Steve Scherf et al.
# Submitted via: FreeRIP 2.91 
#
DISCID=7308500a
DTITLE=Chalino Sanchez - 30 Chalinazos Disco 3
DYEAR=2001
DGENRE=nortena
TTITLE0=Juventino Quintero
TTITLE1=Sergio Sanchez
TTITLE2=Corazoncito Tirano
TTITLE3=Alma Enamorada
TTITLE4=Prenda del Alma
TTITLE5=Maria de la Luz
TTITLE6=Los Chismes
TTITLE7=Ignacio Parra
TTITLE8=Por la Rencilla Vieja
TTITLE9=Juan Cantu
EXTD=
EXTT0=
EXTT1=
EXTT2=
EXTT3=
EXTT4=
EXTT5=
EXTT6=
EXTT7=
EXTT8=
EXTT9=
PLAYORDER=
